HIERARCHY
ROOT hip
{
	OFFSET 0.000000 0.000000 0.000000 
	CHANNELS 6 Xposition Yposition Zposition Xrotation Zrotation Yrotation
	JOINT abdomen
	{
		OFFSET 0.000000 3.402643 0.000000 
		CHANNELS 3 Xrotation Zrotation Yrotation
		JOINT chest
		{
			OFFSET 0.000000 8.438565 -0.680529 
			CHANNELS 3 Xrotation Zrotation Yrotation
			JOINT neck
			{
				OFFSET 0.000000 10.207942 -0.272212 
				CHANNELS 3 Xrotation Zrotation Yrotation
				JOINT head
				{
					OFFSET 0.000000 3.130431 0.000000 
					CHANNELS 3 Xrotation Zrotation Yrotation
					End Site
					{
						OFFSET 0.000000 3.130435 0.000000 
					}
				}
			}
			JOINT lCollar
			{
				OFFSET 3.470700 6.669187 -0.816635 
				CHANNELS 3 Yrotation Zrotation Xrotation
				JOINT lShldr
				{
					OFFSET 3.198488 0.000000 0.000000 
					CHANNELS 3 Zrotation Yrotation Xrotation
					JOINT lForeArm
					{
						OFFSET 10.139888 0.000000 0.000000 
						CHANNELS 3 Yrotation Zrotation Xrotation
						JOINT lHand
						{
							OFFSET 8.370511 0.000000 0.000000 
							CHANNELS 3 Zrotation Yrotation Xrotation
							End Site
							{
								OFFSET 4.083176 0.000000 0.000000 
							}
						}
					}
				}
			}
			JOINT rCollar
			{
				OFFSET -3.470700 6.669187 -0.816635 
				CHANNELS 3 Yrotation Zrotation Xrotation
				JOINT rShldr
				{
					OFFSET -3.198488 0.000000 0.000000 
					CHANNELS 3 Zrotation Yrotation Xrotation
					JOINT rForeArm
					{
						OFFSET -10.139888 0.000000 0.000000 
						CHANNELS 3 Yrotation Zrotation Xrotation
						JOINT rHand
						{
							OFFSET -8.370511 0.000000 0.000000 
							CHANNELS 3 Zrotation Yrotation Xrotation
							End Site
							{
								OFFSET -4.083176 0.000000 0.000000 
							}
						}
					}
				}
			}
		}
	}
	JOINT lThigh
	{
		OFFSET 5.308129 -1.633274 1.361059 
		CHANNELS 3 Xrotation Zrotation Yrotation
		JOINT lShin
		{
			OFFSET -2.041588 -20.007561 0.000000 
			CHANNELS 3 Xrotation Zrotation Yrotation
			JOINT lFoot
			{
				OFFSET 0.000000 -19.190928 -1.224953 
				CHANNELS 3 Xrotation Yrotation Zrotation
				End Site
				{
					OFFSET 0.000000 -2.449906 4.627600 
				}
			}
		}
	}
	JOINT rThigh
	{
		OFFSET -5.308129 -1.633274 1.361059 
		CHANNELS 3 Xrotation Zrotation Yrotation
		JOINT rShin
		{
			OFFSET 2.041588 -20.007561 0.000000 
			CHANNELS 3 Xrotation Zrotation Yrotation
			JOINT rFoot
			{
				OFFSET 0.000000 -19.190928 -1.224953 
				CHANNELS 3 Xrotation Yrotation Zrotation
				End Site
				{
					OFFSET 0.000000 -2.449906 4.627600 
				}
			}
		}
	}
}
MOTION
Frames: 11
Frame Time: 0.011111
4.597144 52.691181 109.733864 -13.687586 22.663357 -129.944534 -9.486240 -2.183892 11.659680 -20.236551 0.358896 2.567138 -20.738899 3.452253 0.840215 43.332870 2.525080 2.320941 -5.788594 -15.737329 -1.465587 -57.981441 -11.525298 -18.838457 -50.663761 7.844803 8.410962 8.524705 12.647240 -47.503307 7.611086 14.174596 -1.900835 56.570679 6.624326 -25.971518 33.970253 -2.365093 2.404438 -8.534408 -12.637552 19.320169 -32.063614 0.701867 8.167000 30.852367 -5.284216 -4.976782 -52.829254 6.603666 11.460031 -6.112389 4.950418 -7.954891 35.241665 5.027025 5.498942 30.095869 -28.851835 16.657581 
4.596183 52.670055 109.743462 -13.536676 22.676180 -129.849289 -9.415736 -1.985269 11.531987 -20.246408 0.387542 2.527222 -20.849894 3.237876 0.979621 43.486095 2.659882 2.545107 -5.788594 -15.737329 -1.465587 -58.172440 -11.455769 -19.171549 -50.413143 7.790540 8.311472 8.524705 12.647240 -47.874401 7.611086 14.174596 -1.900835 56.463024 6.709581 -25.827988 34.168705 -2.451602 2.464442 -8.534408 -12.637552 20.492046 -32.120541 0.808956 8.108961 31.081415 -5.274827 -5.004133 -52.864132 6.357757 11.265030 -5.944731 4.998401 -8.306205 35.192661 5.026923 5.484890 30.488031 -28.357803 16.499744 
4.594583 52.668774 109.748909 -13.525989 22.661459 -129.834320 -9.415037 -1.991785 11.505220 -20.285467 0.398750 2.516921 -20.965677 3.179874 1.008580 43.725132 2.758807 2.616791 -5.788594 -15.737329 -1.465587 -58.249874 -11.267106 -19.063662 -50.277588 7.762061 8.260842 8.524705 12.647240 -47.932995 7.611086 14.174596 -1.900835 56.562286 6.692175 -25.816401 34.178463 -2.451125 2.465145 -8.534408 -12.637552 20.814314 -32.100056 0.779715 7.998525 31.072157 -5.274854 -4.983867 -52.881958 6.450925 11.329846 -5.941089 4.966352 -8.452765 35.252029 5.022931 5.498612 30.541325 -28.280529 16.461561 
4.598423 52.676136 109.748276 -13.591200 22.615679 -129.858795 -9.465426 -2.112283 11.492353 -20.305037 0.428892 2.515948 -21.091825 3.162162 1.031902 43.925606 2.865884 2.693853 -5.788594 -15.737329 -1.465587 -58.295185 -11.202870 -19.298399 -50.100174 7.722695 8.191381 8.524705 12.647240 -48.216194 7.611086 14.174596 -1.900835 56.762119 6.490294 -25.846827 34.019501 -2.378967 2.418793 -8.534408 -12.637552 19.408062 -32.148373 0.722897 8.052807 31.119736 -5.287982 -4.991575 -52.805946 6.639516 11.470140 -6.033729 4.881943 -8.395603 35.251209 5.027028 5.509498 30.605644 -28.332552 16.509832 
4.602264 52.680935 109.744743 -13.530003 22.609718 -129.830765 -9.438360 -2.093340 11.363647 -20.188225 0.540115 2.484426 -21.238119 3.197565 1.055035 43.949566 2.726611 2.731352 -5.788594 -15.737329 -1.465587 -58.439556 -11.305461 -19.875776 -49.943325 7.684611 8.123164 8.524705 12.647240 -48.675182 7.611086 14.174596 -1.900835 56.671116 6.675952 -25.716557 34.049461 -2.401845 2.437253 -8.534408 -12.637552 19.769392 -32.126377 0.732376 7.933814 31.121883 -5.269403 -5.006122 -52.932568 6.727594 11.647553 -6.002719 4.929553 -8.352648 35.252388 5.017270 5.506628 30.680920 -28.262678 16.508341 
4.601944 52.684456 109.748909 -13.420053 22.667223 -129.750198 -9.460873 -1.958107 11.272081 -20.237036 0.531399 2.445184 -21.132164 3.280770 1.037137 43.874176 2.560697 2.648565 -5.788594 -15.737329 -1.465587 -58.448933 -11.119900 -19.890938 -49.849728 7.665667 8.092138 8.524705 12.647240 -48.479870 7.611086 14.174596 -1.900835 56.674759 6.568166 -25.646294 34.098972 -2.415087 2.441917 -8.534408 -12.637552 20.062359 -32.118221 0.859535 7.953911 31.149488 -5.287862 -4.994159 -52.659363 7.054343 11.752649 -5.941563 5.035811 -8.402986 35.223953 5.007665 5.501212 30.728188 -28.206327 16.494062 
4.598103 52.682213 109.765228 -13.407254 22.697487 -129.701309 -9.501880 -1.879671 11.260705 -20.295376 0.426242 2.437927 -21.190414 3.238523 1.030414 44.054764 2.676289 2.661997 -5.788594 -15.737329 -1.465587 -58.378590 -10.955914 -19.844896 -49.776661 7.648515 8.063373 8.524705 12.647240 -48.196667 7.611086 14.174596 -1.900835 56.836269 6.519049 -25.687120 34.168213 -2.444110 2.468707 -8.534408 -12.637552 20.218611 -32.139133 0.840495 7.949659 31.150761 -5.277215 -5.001135 -52.595066 7.034082 11.707906 -5.934456 5.027263 -8.489843 35.163246 5.017253 5.508527 30.813156 -28.146542 16.478319 
4.595863 52.678375 109.775154 -13.434405 22.696787 -129.715439 -9.547602 -1.886735 11.274279 -20.246733 0.502530 2.445900 -21.355436 3.162109 1.033359 44.242031 2.712337 2.647404 -5.788594 -15.737329 -1.465587 -58.446693 -10.952826 -19.887922 -49.599358 7.607415 7.993615 8.524705 12.647240 -48.323620 7.611086 14.174596 -1.900835 56.860168 6.561332 -25.719891 34.247719 -2.480078 2.492022 -8.534408 -12.637552 20.433453 -32.164543 0.810152 8.034785 31.172071 -5.269432 -4.991982 -52.600132 7.005519 11.678483 -5.946617 5.028563 -8.393519 35.124435 5.017201 5.485673 30.827358 -28.226463 16.539845 
4.595542 52.686054 109.779633 -13.470329 22.691828 -129.740326 -9.592836 -1.920420 11.254567 -20.139610 0.595317 2.434570 -21.395578 3.259003 1.036071 44.109447 2.574105 2.659507 -5.788594 -15.737329 -1.465587 -58.531605 -11.069182 -20.071234 -49.463154 7.569842 7.928406 8.524705 12.647240 -48.450573 7.611086 14.174596 -1.900835 56.788326 6.670610 -25.696737 34.138702 -2.437453 2.461128 -8.534408 -12.637552 20.521343 -32.194298 0.781020 8.052649 31.181654 -5.269437 -5.002554 -52.686714 6.932670 11.664991 -5.984079 5.085755 -7.938866 35.092091 5.042291 5.480744 30.443806 -28.994549 16.891235 
4.596822 52.675175 109.783470 -13.422803 22.726469 -129.753616 -9.605501 -1.782834 11.203746 -20.081133 0.621875 2.424693 -21.366089 3.299895 1.063085 43.937981 2.429479 2.703457 -5.788594 -15.737329 -1.465587 -58.639061 -11.060183 -20.321566 -49.504997 7.580909 7.947131 8.524705 12.647240 -48.509167 7.611086 14.174596 -1.900835 56.651943 6.752322 -25.560648 33.940525 -2.350277 2.391478 -8.534408 -12.637552 20.423689 -32.205635 0.888929 8.087697 31.200459 -5.278370 -4.996088 -52.759373 6.696296 11.498218 -5.926603 5.076860 -8.254147 35.064045 5.026815 5.483296 30.858559 -28.270699 16.581047 
4.600664 52.675816 109.776756 -13.332519 22.758602 -129.741791 -9.573265 -1.680802 11.175030 -20.081127 0.611871 2.415170 -21.530270 3.174605 1.074899 44.109119 2.552655 2.710968 -5.788594 -15.737329 -1.465587 -58.682404 -11.015399 -20.527021 -49.546844 7.591939 7.965875 8.524705 12.647240 -48.655647 7.611086 14.174596 -1.900835 56.692558 6.816324 -25.536449 33.861092 -2.313999 2.368554 -8.534408 -12.637552 20.208843 -32.181637 1.043786 8.312046 31.221382 -5.264485 -5.024157 -52.551247 6.644643 11.310706 -5.886693 5.184213 -8.199355 35.084106 5.026879 5.475356 30.692398 -28.355232 16.588346 
